<svg width="182.949615" height="59.167847" viewBox="0 0 182.95 59.1678" fill="none" xmlns="http://www.w3.org/2000/svg" xmlns:xlink="http://www.w3.org/1999/xlink">
	<desc>
			Created with Pixso.
	</desc>
	<defs>
		<clipPath id="clip1_243">
			<rect id="6" width="182.000000" height="56.000000" transform="translate(0.000000 3.176392) rotate(-1.000000)" fill="white" fill-opacity="0"/>
		</clipPath>
	</defs>
	<rect id="6" width="182.000000" height="56.000000" transform="translate(0.000000 3.176392) rotate(-1.000000)" fill="#FFFFFF" fill-opacity="0"/>
	<g clip-path="url(#clip1_243)">
		<path id="path3008" d="M0.781586 42.7422L0.106812 4.08447L6.82176 3.96729L7.49654 42.625L0.781586 42.7422Z" fill="#FFFFFF" fill-opacity="1.000000" fill-rule="nonzero"/>
		<path id="path3010" d="M24.1958 14.2803C15.5864 14.4305 9.74539 21.2288 9.87914 28.891C10.0284 37.4424 16.6127 43.2203 24.7654 43.078C32.5029 42.943 39.1163 37.0431 38.9648 28.3647C38.8374 21.0671 33.1507 14.124 24.1958 14.2803ZM24.2311 20.8324C28.7367 20.7538 32.115 24.2427 32.1897 28.5261C32.269 33.0677 28.6705 36.4447 24.6266 36.5154C19.8482 36.5988 16.7742 32.8213 16.7042 28.8087C16.6274 24.4105 19.9624 20.907 24.2311 20.8324Z" fill="#FFFFFF" fill-opacity="1.000000" fill-rule="nonzero"/>
		<path id="path3012" d="M55.5859 13.7323C46.9764 13.8826 41.1354 20.6808 41.2691 28.343C41.4184 36.8944 48.0027 42.6724 56.1555 42.53C63.8929 42.395 70.5063 36.4951 70.3548 27.8168C70.2656 22.7063 68.0375 20.4771 68.0375 20.4771L69.8875 19.7991L69.7913 14.2878L60.2541 14.4543C60.2541 14.4543 58.1725 13.6871 55.5859 13.7323ZM55.6211 20.2844C60.1267 20.2058 63.505 23.6947 63.5798 27.9781C63.659 32.5198 60.0605 35.8967 56.0166 35.9674C51.2383 36.0508 48.1643 32.2733 48.0942 28.2607C48.0175 23.8625 51.3524 20.359 55.6211 20.2844Z" fill="#FFFFFF" fill-opacity="1.000000" fill-rule="nonzero"/>
		<path id="path3014" d="M63.8037 43.5323C63.883 48.074 60.2849 51.4756 56.241 51.5461C51.4626 51.6295 48.3758 47.8154 48.3058 43.8029L41.4935 43.9218C41.6428 52.4733 48.2271 58.2511 56.3798 58.1088C64.1173 57.9738 70.731 52.0924 70.5795 43.4141L63.8037 43.5323Z" fill="#FFFFFF" fill-opacity="1.000000" fill-rule="nonzero"/>
		<path id="path3016" d="M73.2837 41.4767L72.8082 14.2352L79.5232 14.118L79.9987 41.3595L73.2837 41.4767Z" fill="#FFFFFF" fill-opacity="1.000000" fill-rule="nonzero"/>
		<path id="path3018" d="M86.5189 41.2457L86.1499 20.1061L82.5491 20.1689L82.4426 14.0671L86.0434 14.0043L85.8974 5.63892L92.6124 5.52173L92.7584 13.8871L96.4565 13.8225L96.563 19.9243L92.8649 19.9889L93.2339 41.1285L86.5189 41.2457Z" fill="#FFFFFF" fill-opacity="1.000000" fill-rule="nonzero"/>
		<path id="path3020" d="M80.4632 6.36218C80.5065 8.8457 78.5509 10.8937 76.0951 10.9365C73.6393 10.9794 71.6133 9.00085 71.5699 6.51746C71.5266 4.03394 73.4823 1.98584 75.9381 1.94299C78.3939 1.90015 80.4198 3.87866 80.4632 6.36218Z" fill="#FFFFFF" fill-opacity="1.000000" fill-rule="nonzero"/>
		<path id="path3022" d="M111.539 12.7373C102.888 12.8883 97.4288 19.6833 97.5671 27.6064C97.71 35.7942 103.41 41.7238 112.182 41.5707C120.364 41.4279 124.299 36.1907 124.299 36.1907L119.731 31.7235C119.731 31.7235 116.406 35.4794 112.162 35.5535C108.624 35.6152 105.76 33.6676 104.71 30.0229L125.633 29.6577L125.6 27.7878C125.47 20.3267 121.063 12.571 111.539 12.7373ZM111.43 18.7197C114.523 18.6658 117.716 20.2841 118.493 24.2694L104.431 24.5149C104.939 21.6951 107.32 18.7915 111.43 18.7197Z" fill="#FFFFFF" fill-opacity="1.000000" fill-rule="nonzero"/>
		<path id="path3024" d="M142.633 41.0426C133.958 41.194 127.931 34.6157 127.793 26.7379C127.652 18.6079 134.224 12.3362 142.102 12.1986C149.717 12.0657 153.71 17.4342 153.71 17.4342L149.108 22.2316C149.108 22.2316 146.332 18.7335 142.185 18.8059C137.589 18.8861 134.508 22.4968 134.582 26.7236C134.659 31.1866 138.062 34.5525 142.407 34.4767C146.621 34.4031 149.251 30.8164 149.251 30.8164L154.064 35.4469C154.064 35.4469 150.299 40.9088 142.633 41.0426Z" fill="#FFFFFF" fill-opacity="1.000000" fill-rule="nonzero"/>
		<path id="path3026" d="M156.588 40.0422L155.912 1.26648L162.627 1.14929L162.875 15.3956C162.875 15.3956 165.384 11.7922 170.977 11.6946C178.009 11.5718 182.174 16.7865 182.292 23.547L182.572 39.5887L175.857 39.7059L175.595 24.6906C175.516 20.1487 172.687 18.3132 169.59 18.3673C166.06 18.429 162.965 20.5146 163.047 25.2611L163.303 39.925L156.588 40.0422Z" fill="#FFFFFF" fill-opacity="1.000000" fill-rule="nonzero"/>
	</g>
</svg>
